<mxfile host="app.diagrams.net" modified="2022-09-07T09:53:28.281Z" agent="5.0 (Windows NT 10.0; Win64; x64) AppleWebKit/537.36 (KHTML, like Gecko) Chrome/97.0.4692.99 Safari/537.36" etag="phbBgtJTu4IzepeaorPK" version="20.2.8" type="github">
  <diagram id="ye2RUaFVlnxV50ZEqhlz" name="第 1 页">
    <mxGraphModel dx="1422" dy="772" grid="1" gridSize="10" guides="1" tooltips="1" connect="1" arrows="1" fold="1" page="1" pageScale="1" pageWidth="827" pageHeight="1169" math="0" shadow="0">
      <root>
        <mxCell id="0" />
        <mxCell id="1" parent="0" />
        <mxCell id="lqc4Ca-nyEtZ-Kyz2MPw-4" style="edgeStyle=orthogonalEdgeStyle;rounded=0;orthogonalLoop=1;jettySize=auto;html=1;exitX=1;exitY=1;exitDx=0;exitDy=0;" edge="1" parent="1" source="lqc4Ca-nyEtZ-Kyz2MPw-1" target="lqc4Ca-nyEtZ-Kyz2MPw-3">
          <mxGeometry relative="1" as="geometry" />
        </mxCell>
        <mxCell id="lqc4Ca-nyEtZ-Kyz2MPw-1" value="创建订单" style="rounded=1;whiteSpace=wrap;html=1;" vertex="1" parent="1">
          <mxGeometry x="147" y="120" width="120" height="60" as="geometry" />
        </mxCell>
        <mxCell id="lqc4Ca-nyEtZ-Kyz2MPw-5" style="edgeStyle=orthogonalEdgeStyle;rounded=0;orthogonalLoop=1;jettySize=auto;html=1;entryX=0.5;entryY=0;entryDx=0;entryDy=0;" edge="1" parent="1" source="lqc4Ca-nyEtZ-Kyz2MPw-2" target="lqc4Ca-nyEtZ-Kyz2MPw-3">
          <mxGeometry relative="1" as="geometry" />
        </mxCell>
        <mxCell id="lqc4Ca-nyEtZ-Kyz2MPw-2" value="手动新建" style="rounded=1;whiteSpace=wrap;html=1;" vertex="1" parent="1">
          <mxGeometry x="430" y="120" width="120" height="60" as="geometry" />
        </mxCell>
        <mxCell id="lqc4Ca-nyEtZ-Kyz2MPw-3" value="采购任务" style="rounded=1;whiteSpace=wrap;html=1;" vertex="1" parent="1">
          <mxGeometry x="310" y="240" width="120" height="60" as="geometry" />
        </mxCell>
      </root>
    </mxGraphModel>
  </diagram>
</mxfile>
